Coordinates
version=1
nRows=27
nColumns=12
inDegrees=yes

Units are S.I. units (second, meters, Newtons, ...)
Angles are in degrees

endheader
time	SC_y	SC_z	SC_x	AC_y	AC_z	AC_x	GH_y	GH_z	GH_yy	EL_x	PS_y
       0.0              -19.52          19.73          12.35          39.52         -11.04         -11.06         -125.9          36.38          20.71          111.5          14.03
   0.04605              -19.53          19.74          12.35          39.52         -11.04         -11.06         -125.9          36.39          20.73          111.5          14.05
   0.09211              -19.53          19.74          12.35          39.52         -11.04         -11.05         -125.8          36.39          20.75          111.5          14.07
    0.1382              -19.54          19.74          12.35          39.52         -11.04         -11.05         -125.8           36.4          20.78          111.5          14.09
    0.1842              -19.55          19.74          12.35          39.52         -11.03         -11.05         -125.8           36.4           20.8          111.5          14.11
    0.2303              -19.55          19.75          12.34          39.52         -11.03         -11.04         -125.8          36.41          20.83          111.5          14.13
    0.2763              -19.56          19.75          12.34          39.52         -11.03         -11.04         -125.7          36.41          20.86          111.4          14.16
    0.3224              -19.57          19.75          12.34          39.51         -11.02         -11.03         -125.7          36.42          20.89          111.4          14.19
    0.3684              -19.58          19.76          12.34          39.51         -11.02         -11.03         -125.6          36.42          20.92          111.4          14.21
    0.4145              -19.59          19.76          12.34          39.51         -11.02         -11.02         -125.6          36.43          20.96          111.4          14.24
    0.4605               -19.6          19.77          12.33          39.51         -11.01         -11.02         -125.6          36.44          20.99          111.4          14.28
    0.5066              -19.61          19.77          12.33          39.51         -11.01         -11.01         -125.5          36.44          21.03          111.3          14.31
    0.5526              -19.62          19.78          12.33           39.5          -11.0          -11.0         -125.5          36.45          21.08          111.3          14.35
    0.5987              -19.63          19.78          12.33           39.5          -11.0         -10.99         -125.4          36.46          21.13          111.3          14.39
    0.6447              -19.65          19.79          12.32           39.5         -10.99         -10.99         -125.4          36.47          21.18          111.3          14.43
    0.6908              -19.66           19.8          12.32           39.5         -10.99         -10.98         -125.3          36.48          21.23          111.2          14.48
    0.7369              -19.68           19.8          12.31          39.49         -10.98         -10.97         -125.2          36.49          21.29          111.2          14.53
    0.7829              -19.69          19.81          12.31          39.49         -10.97         -10.96         -125.1           36.5          21.36          111.2          14.59
     0.829              -19.71          19.82          12.31          39.48         -10.96         -10.95         -125.1          36.51          21.43          111.1          14.65
     0.875              -19.73          19.83           12.3          39.48         -10.95         -10.93         -125.0          36.53          21.51          111.1          14.72
    0.9211              -19.76          19.84           12.3          39.48         -10.95         -10.92         -124.9          36.54          21.59          111.0          14.79
    0.9671              -19.78          19.85          12.29          39.47         -10.93          -10.9         -124.8          36.56          21.69          111.0          14.87
     1.013              -19.81          19.86          12.28          39.46         -10.92         -10.89         -124.6          36.58          21.79          110.9          14.96
     1.059              -19.84          19.88          12.28          39.46         -10.91         -10.87         -124.5           36.6          21.91          110.9          15.06
     1.105              -19.87          19.89          12.27          39.45          -10.9         -10.85         -124.4          36.63          22.04          110.8          15.17
     1.151              -19.91          19.91          12.26          39.44         -10.88         -10.82         -124.2          36.65          22.18          110.7           15.3
     1.197              -19.96          19.93          12.25          39.43         -10.86          -10.8         -124.0          36.68          22.34          110.6          15.44
